<svg width="30" height="26" viewBox="0 0 30 26" fill="none" xmlns="http://www.w3.org/2000/svg">
<path d="M11.2406 21.6975C10.8783 21.6975 10.584 21.991 10.584 22.3538C10.584 22.7165 10.8784 23.0105 11.2406 23.0105C11.6034 23.0105 11.8973 22.7165 11.8973 22.3538C11.8973 21.991 11.6034 21.6975 11.2406 21.6975Z" fill="#332F2E"/>
<path d="M11.2406 19.2439C10.8783 19.2439 10.584 19.5378 10.584 19.9006C10.584 20.2629 10.8784 20.5569 11.2406 20.5569C11.6034 20.5569 11.8973 20.2629 11.8973 19.9006C11.8973 19.5378 11.6034 19.2439 11.2406 19.2439Z" fill="#332F2E"/>
<path d="M28.4962 11.348H11.8972H11.7769H10.5838H5.96189H4.76892V12.5406V24.8069V26H5.96194H10.5838H11.7769H11.8972H28.4962H29.6893V24.8069V12.5406V11.348H28.4962ZM28.4962 24.8069H11.8972C11.8972 24.4442 11.6033 24.1507 11.2405 24.1507C10.8782 24.1507 10.5838 24.4442 10.5838 24.8069H5.96194V12.5406H10.5838C10.5838 12.9033 10.8782 13.1969 11.2405 13.1969C11.6033 13.1969 11.8972 12.9033 11.8972 12.5406H28.4962L28.4962 24.8069Z" fill="#332F2E"/>
<path d="M11.2406 16.7908C10.8783 16.7908 10.584 17.0847 10.584 17.4474C10.584 17.8097 10.8784 18.1037 11.2406 18.1037C11.6034 18.1037 11.8973 17.8097 11.8973 17.4474C11.8973 17.0847 11.6034 16.7908 11.2406 16.7908Z" fill="#332F2E"/>
<path d="M11.2406 14.3375C10.8783 14.3375 10.584 14.631 10.584 14.9938C10.584 15.3565 10.8784 15.6505 11.2406 15.6505C11.6034 15.6505 11.8973 15.3565 11.8973 14.9938C11.8973 14.631 11.6034 14.3375 11.2406 14.3375Z" fill="#332F2E"/>
<path d="M6.83364 9.53385L21.4238 1.61731L26.0569 10.1548H27.4137L22.4721 1.04782L21.9035 0L20.8544 0.568213L6.26549 8.48562L6.15972 8.54274L5.11108 9.11136L1.04876 11.3161L0.00012207 11.8852L0.569147 12.9339L3.57635 18.4754V15.9741L1.61784 12.3648L3.57635 11.3015L6.83364 9.53385Z" fill="#332F2E"/>
</svg>
